<svg xmlns="http://www.w3.org/2000/svg" width="1024" height="576" viewBox="0 0 1024 576">
  <rect width="1024" height="576" fill="#050510"/>
  <!-- Sound wave bars centered -->
  <rect x="192" y="268" width="20" height="40" rx="4" fill="url(#waveGrad)" opacity="0.6"/>
  <rect x="224" y="248" width="20" height="80" rx="4" fill="url(#waveGrad)" opacity="0.7"/>
  <rect x="256" y="228" width="20" height="120" rx="4" fill="url(#waveGrad)" opacity="0.8"/>
  <rect x="288" y="208" width="20" height="160" rx="4" fill="url(#waveGrad)" opacity="0.9"/>
  <rect x="320" y="188" width="20" height="200" rx="4" fill="url(#waveGrad)" opacity="1"/>
  <rect x="352" y="168" width="20" height="240" rx="4" fill="url(#waveGrad)" opacity="1"/>
  <rect x="384" y="208" width="20" height="160" rx="4" fill="url(#waveGrad)" opacity="0.9"/>
  <rect x="416" y="148" width="20" height="280" rx="4" fill="url(#waveGrad)" opacity="1"/>
  <rect x="448" y="178" width="20" height="220" rx="4" fill="url(#waveGrad)" opacity="1"/>
  <rect x="480" y="118" width="20" height="340" rx="4" fill="url(#waveGrad)" opacity="1"/>
  <rect x="512" y="108" width="20" height="360" rx="4" fill="url(#waveGrad)" opacity="1"/>
  <rect x="544" y="118" width="20" height="340" rx="4" fill="url(#waveGrad)" opacity="1"/>
  <rect x="576" y="178" width="20" height="220" rx="4" fill="url(#waveGrad)" opacity="1"/>
  <rect x="608" y="148" width="20" height="280" rx="4" fill="url(#waveGrad)" opacity="1"/>
  <rect x="640" y="208" width="20" height="160" rx="4" fill="url(#waveGrad)" opacity="0.9"/>
  <rect x="672" y="168" width="20" height="240" rx="4" fill="url(#waveGrad)" opacity="1"/>
  <rect x="704" y="188" width="20" height="200" rx="4" fill="url(#waveGrad)" opacity="1"/>
  <rect x="736" y="208" width="20" height="160" rx="4" fill="url(#waveGrad)" opacity="0.9"/>
  <rect x="768" y="228" width="20" height="120" rx="4" fill="url(#waveGrad)" opacity="0.8"/>
  <rect x="800" y="248" width="20" height="80" rx="4" fill="url(#waveGrad)" opacity="0.7"/>
  <rect x="832" y="268" width="20" height="40" rx="4" fill="url(#waveGrad)" opacity="0.6"/>
  <defs>
    <linearGradient id="waveGrad" x1="0%" y1="0%" x2="0%" y2="100%">
      <stop offset="0%" stop-color="#6366F1"/>
      <stop offset="50%" stop-color="#06B6D4"/>
      <stop offset="100%" stop-color="#6366F1"/>
    </linearGradient>
    <linearGradient id="textGrad3" x1="0%" y1="0%" x2="100%" y2="0%">
      <stop offset="0%" stop-color="#6366F1"/>
      <stop offset="100%" stop-color="#06B6D4"/>
    </linearGradient>
  </defs>
  <!-- Label -->
  <text x="512" y="530" font-family="Inter, system-ui, sans-serif" font-size="18" font-weight="600" fill="url(#textGrad3)" text-anchor="middle" opacity="0.9">Voice Wave</text>
  <text x="512" y="554" font-family="Inter, system-ui, sans-serif" font-size="12" fill="#8888AA" text-anchor="middle">feature-voice-wave</text>
</svg>
